<?xml version="1.0" standalone="no"?>
<!DOCTYPE svg PUBLIC "-//W3C//DTD SVG 20010904//EN"
 "http://www.w3.org/TR/2001/REC-SVG-20010904/DTD/svg10.dtd">
<svg version="1.0" xmlns="http://www.w3.org/2000/svg"
 width="81.000000pt" height="82.000000pt" viewBox="0 0 81.000000 82.000000"
 preserveAspectRatio="xMidYMid meet">

<g transform="translate(0.000000,82.000000) scale(0.100000,-0.100000)"
fill="#000000" stroke="none">
<path d="M305 636 c-60 -28 -87 -56 -114 -116 -52 -114 7 -257 126 -307 91
-38 217 1 276 85 27 40 32 58 35 118 3 56 0 79 -16 110 -61 120 -189 166 -307
110z m200 -30 c121 -65 139 -239 34 -329 -86 -74 -189 -73 -271 1 -50 45 -68
85 -68 153 0 92 60 171 147 195 57 15 104 9 158 -20z"/>
<path d="M348 512 c-45 -34 -48 -39 -48 -84 l0 -48 45 0 c46 0 58 13 33 38
-10 10 -6 18 16 40 22 21 27 23 22 8 -4 -12 0 -26 10 -37 14 -15 14 -21 4 -34
-11 -13 -7 -15 28 -15 43 0 52 10 52 60 0 22 -12 38 -47 69 -27 23 -52 41 -58
40 -5 0 -31 -17 -57 -37z"/>
</g>
</svg>
